<svg width="397" height="656" viewBox="0 0 397 656" fill="none" xmlns="http://www.w3.org/2000/svg">
<g filter="url(#filter0_d)">
<path d="M4 647.18H13C13 644.38 16 642.11 19.64 642.11C23.28 642.11 26.28 644.38 26.28 647.18H31.81C31.81 644.38 34.81 642.11 38.44 642.11C42.07 642.11 45.08 644.38 45.08 647.18H50.61C50.61 644.38 53.61 642.11 57.24 642.11C60.87 642.11 63.88 644.38 63.88 647.18H69.41C69.41 644.38 72.41 642.11 76.04 642.11C79.67 642.11 82.68 644.38 82.68 647.18H88.21C88.21 644.38 91.21 642.11 94.84 642.11C98.47 642.11 101.48 644.38 101.48 647.18H107.01C107.01 644.38 110.01 642.11 113.65 642.11C117.29 642.11 120.28 644.38 120.28 647.18H125.81C125.81 644.38 128.81 642.11 132.45 642.11C136.09 642.11 139.08 644.38 139.08 647.18H144.61C144.61 644.38 147.61 642.11 151.25 642.11C154.89 642.11 157.88 644.38 157.88 647.18H163.41C163.41 644.38 166.41 642.11 170.05 642.11C173.69 642.11 176.68 644.38 176.68 647.18H182.21C182.21 644.38 185.21 642.11 188.85 642.11C192.49 642.11 195.49 644.38 195.49 647.18H201.02C201.02 644.38 204.02 642.11 207.65 642.11C211.28 642.11 214.29 644.38 214.29 647.18H219.82C219.82 644.38 222.82 642.11 226.45 642.11C230.08 642.11 233.09 644.38 233.09 647.18H238.62C238.62 644.38 241.62 642.11 245.25 642.11C248.88 642.11 251.89 644.38 251.89 647.18H257.42C257.42 644.38 260.42 642.11 264.05 642.11C267.68 642.11 270.69 644.38 270.69 647.18H276.22C276.22 644.38 279.22 642.11 282.85 642.11C286.48 642.11 289.49 644.38 289.49 647.18H295.02C295.02 644.38 298.02 642.11 301.66 642.11C305.3 642.11 308.29 644.38 308.29 647.18H313.82C313.82 644.38 316.82 642.11 320.46 642.11C324.1 642.11 327.09 644.38 327.09 647.18H332.62C332.62 644.38 335.62 642.11 339.26 642.11C342.9 642.11 345.89 644.38 345.89 647.18H351.42C351.42 644.38 354.42 642.11 358.06 642.11C361.7 642.11 364.69 644.38 364.69 647.18H370.22C370.22 644.38 373.22 642.11 376.86 642.11C380.5 642.11 383.5 644.38 383.5 647.18H392.5V0H383.5C383.5 2.8 380.5 5.07 376.86 5.07C373.22 5.07 370.22 2.8 370.22 0H364.69C364.69 2.8 361.69 5.07 358.06 5.07C354.43 5.07 351.42 2.8 351.42 0H345.95C345.95 2.8 342.95 5.07 339.32 5.07C335.69 5.07 332.68 2.8 332.68 0H327.15C327.15 2.8 324.15 5.07 320.52 5.07C316.89 5.07 313.88 2.8 313.88 0H308.35C308.35 2.8 305.35 5.07 301.72 5.07C298.09 5.07 295.08 2.8 295.08 0H289.55C289.55 2.8 286.55 5.07 282.91 5.07C279.27 5.07 276.28 2.8 276.28 0H270.75C270.75 2.8 267.75 5.07 264.11 5.07C260.47 5.07 257.48 2.8 257.48 0H251.95C251.95 2.8 248.95 5.07 245.31 5.07C241.67 5.07 238.68 2.8 238.68 0H233.15C233.15 2.8 230.15 5.07 226.51 5.07C222.87 5.07 219.88 2.8 219.88 0H214.35C214.35 2.8 211.35 5.07 207.71 5.07C204.07 5.07 201.07 2.8 201.07 0H195.55C195.55 2.8 192.55 5.07 188.91 5.07C185.27 5.07 182.27 2.8 182.27 0H176.74C176.74 2.8 173.74 5.07 170.11 5.07C166.48 5.07 163.47 2.8 163.47 0H157.95C157.95 2.8 154.95 5.07 151.32 5.07C147.69 5.07 144.68 2.8 144.68 0H139.15C139.15 2.8 136.15 5.07 132.52 5.07C128.89 5.07 125.88 2.8 125.88 0H120.35C120.35 2.8 117.35 5.07 113.72 5.07C110.09 5.07 107.08 2.8 107.08 0H101.55C101.55 2.8 98.55 5.07 94.91 5.07C91.27 5.07 88.28 2.8 88.28 0H82.75C82.75 2.8 79.75 5.07 76.11 5.07C72.47 5.07 69.48 2.8 69.48 0H63.95C63.95 2.8 60.95 5.07 57.31 5.07C53.67 5.07 50.68 2.8 50.68 0H45.15C45.15 2.8 42.15 5.07 38.51 5.07C34.87 5.07 31.88 2.8 31.88 0H26.35C26.35 2.8 23.35 5.07 19.71 5.07C16.07 5.07 13.07 2.8 13.07 0H4.06999" fill="#FFFDAD"/>
</g>
<defs>
<filter id="filter0_d" x="0" y="0" width="396.5" height="655.18" filterUnits="userSpaceOnUse" color-interpolation-filters="sRGB">
<feFlood flood-opacity="0" result="BackgroundImageFix"/>
<feColorMatrix in="SourceAlpha" type="matrix" values="0 0 0 0 0 0 0 0 0 0 0 0 0 0 0 0 0 0 127 0"/>
<feOffset dy="4"/>
<feGaussianBlur stdDeviation="2"/>
<feColorMatrix type="matrix" values="0 0 0 0 0 0 0 0 0 0 0 0 0 0 0 0 0 0 0.25 0"/>
<feBlend mode="normal" in2="BackgroundImageFix" result="effect1_dropShadow"/>
<feBlend mode="normal" in="SourceGraphic" in2="effect1_dropShadow" result="shape"/>
</filter>
</defs>
</svg>
